{
	"next_topic_id": 2,
	"topic": [
		{
			"topic_id": 1,
			"category": "movies",
			"title": "Big Buck Bunny 4K UHD HFR 60fps FLAC WEBDL 2160p X264 ZMachine mkv",
			"torrent_imdb": "tt1254207",
			"body": "Sample info:\nDuration: 00:10:34.53, start: 0.000000, bitrate: 11256 kb/s\nStream #0:0: Video: h264 (High), yuv420p, 3840x2160 [SAR 1:1 DAR 16:9], 60 fps, 60 tbr, 1k tbn, 120 tbc (default)\ntitle\t: Video H264 High@L5.1 (4K UltraHD - HFR 60 fps)\n_STATISTICS_WRITING_APP: mkvmerge v7.4.0 (&#x27;Circles&#x27;) 64bit built on Dec 12 2014 12:19:56\n_STATISTICS_WRITING_APP-eng: mkvmerge v7.4.0 (&#x27;Circles&#x27;) 64bit built on Dec 12 2014 12:19:56\n_STATISTICS_WRITING_DATE_UTC: 2015-01-21 21:20:46\n_STATISTICS_WRITING_DATE_UTC-eng: 2015-01-21 21:20:46\n_STATISTICS_TAGS: BPS DURATION NUMBER_OF_FRAMES NUMBER_OF_BYTES\n_STATISTICS_TAGS-eng: BPS DURATION NUMBER_OF_FRAMES NUMBER_OF_BYTES\nBPS\t: 8002640\nBPS-eng\t: 8002640\nDURATION\t: 00:10:34.534000000\nDURATION-eng\t: 00:10:34.534000000\nNUMBER_OF_FRAMES: 38072\nNUMBER_OF_FRAMES-eng: 38072\nNUMBER_OF_BYTES : 634743440\nNUMBER_OF_BYTES-eng: 634743440\nStream #0:1: Audio: flac, 48000 Hz, 5.1(side), s32 (default)\ntitle\t: Audio FLAC 5.1\nBPS\t: 3245607\nBPS-eng\t: 3245607\nDURATION\t: 00:10:34.125000000\nDURATION-eng\t: 00:10:34.125000000\nNUMBER_OF_FRAMES: 7432\nNUMBER_OF_FRAMES-eng: 7432\nNUMBER_OF_BYTES : 257265141\nNUMBER_OF_BYTES-eng: 257265141\n_STATISTICS_WRITING_APP: mkvmerge v7.4.0 (&#x27;Circles&#x27;) 64bit built on Dec 12 2014 12:19:56\n_STATISTICS_WRITING_APP-eng: mkvmerge v7.4.0 (&#x27;Circles&#x27;) 64bit built on Dec 12 2014 12:19:56\n_STATISTICS_WRITING_DATE_UTC: 2015-01-21 21:20:46\n_STATISTICS_WRITING_DATE_UTC-eng: 2015-01-21 21:20:46\n_STATISTICS_TAGS: BPS DURATION NUMBER_OF_FRAMES NUMBER_OF_BYTES\n_STATISTICS_TAGS-eng: BPS DURATION NUMBER_OF_FRAMES NUMBER_OF_BYTES\nStream #0:2: Attachment: mjpeg\nfilename\t: Big_buck_bunny_poster_big.jpg\nmimetype\t: image/jpeg",
			"magnet": "magnet:?xt=urn:btih:72f242db89e763b6ce390f25d576195c2169b149&dn=Big%20Buck%20Bunny%204K%20UHD%20HFR%2060fps%20FLAC%20WEBDL%202160p%20X264%20ZMachine%20mkv&tr=http://opentrackr.org/announce&tr=http://tracker.opentrackr.org/announce&tr=udp://tracker.coppersurfer.tk:6969/announce&tr=udp://tracker.leechers-paradise.org:6969/announce&tr=udp://tracker.opentrackr.org:1337/announce",
			"torrent_file": "data/users/16ayEL9rXHKdbhoFu1LUanUaPVrzRVe331/",
			"added": 1471181002
		}
	],
	"topic_vote": {},
	"next_comment_id": 1,
	"comment": {},
	"comment_vote": {}
}